<?xml version="1.0" standalone="no"?>
<!DOCTYPE svg PUBLIC "-//W3C//DTD SVG 20010904//EN"
 "http://www.w3.org/TR/2001/REC-SVG-20010904/DTD/svg10.dtd">
<svg version="1.0" xmlns="http://www.w3.org/2000/svg"
 width="16.000000pt" height="16.000000pt" viewBox="0 0 16.000000 16.000000"
 preserveAspectRatio="xMidYMid meet">
<metadata>
Created by potrace 1.11, written by Peter Selinger 2001-2013
</metadata>
<g transform="translate(0.000000,16.000000) scale(0.003960,-0.003960)"
fill="#000000" stroke="none">
<path d="M515 2207 l1 -412 84 0 85 0 2 135 c1 74 2 150 2 168 l1 32 65 0 c45
0 65 4 66 13 1 24 1 102 0 123 -1 19 -6 21 -66 17 l-65 -3 -1 58 c0 31 -1 108
-1 170 l-1 112 -86 0 -86 0 0 -413z"/>
<path d="M909 2573 c-3 -10 -4 -159 -4 -332 l1 -315 24 -6 c31 -8 122 -1 116
9 -8 13 13 37 22 25 25 -38 120 -59 171 -38 137 57 191 267 106 411 -41 69
-154 104 -223 69 -18 -9 -35 -15 -39 -14 -3 2 -7 48 -7 103 l-1 100 -81 3
c-72 3 -82 1 -85 -15z m280 -329 c16 -21 20 -38 17 -91 -2 -57 -6 -69 -29 -89
-22 -19 -32 -21 -58 -14 -18 5 -34 12 -37 15 -7 6 -10 141 -4 166 4 19 37 37
69 38 12 1 31 -10 42 -25z"/>
<path d="M1480 2580 c-4 -3 -7 -34 -6 -70 l1 -65 63 1 62 1 0 -91 c1 -50 1
-138 2 -196 0 -140 25 -197 102 -237 47 -24 236 -12 236 16 0 4 -7 31 -16 60
-15 52 -15 52 -51 48 -52 -7 -91 9 -97 41 -3 15 -6 113 -5 217 1 105 1 210 0
235 l-1 45 -141 0 c-77 0 -144 -2 -149 -5z"/>
<path d="M3197 2575 c-1 -5 -3 -154 -2 -330 l0 -320 79 -3 c47 -2 82 1 86 7 3
6 5 30 4 54 -1 33 4 50 25 76 l26 32 50 -82 c27 -44 54 -83 60 -86 7 -2 48 -3
93 -1 l81 3 -90 134 c-49 73 -89 136 -89 140 0 3 24 31 53 62 49 53 72 80 106
122 13 16 7 17 -81 17 l-94 0 -37 -47 c-20 -27 -52 -66 -71 -87 l-35 -40 0
170 c1 93 1 174 0 180 -1 13 -159 13 -164 -1z"/>
<path d="M351 2211 c1 -329 -8 -301 94 -291 l50 5 0 265 c0 146 -1 275 -3 288
-4 20 -10 22 -73 22 l-69 0 1 -289z"/>
<path d="M2823 2400 c-135 -37 -204 -127 -199 -257 7 -183 194 -286 388 -213
80 30 85 39 53 94 -34 58 -38 60 -73 42 -43 -22 -82 -27 -123 -15 -79 24 -97
138 -31 197 30 26 98 30 142 7 27 -14 29 -14 55 17 44 53 52 76 29 93 -52 40
-164 56 -241 35z"/>
<path d="M2190 2401 c-44 -9 -130 -49 -130 -60 0 -5 12 -30 26 -56 22 -38 31
-46 48 -41 11 2 46 11 76 19 59 15 114 7 123 -17 4 -10 -9 -15 -51 -21 -92
-11 -105 -14 -151 -38 -63 -31 -86 -66 -86 -131 0 -131 119 -187 260 -122 55
25 57 25 62 6 5 -18 14 -20 77 -20 l72 0 -1 148 c-1 81 -5 167 -9 190 -10 57
-74 125 -131 141 -44 12 -130 13 -185 2z m151 -278 c0 -5 2 -16 4 -25 8 -43
-106 -78 -135 -42 -11 13 -10 19 8 36 24 24 121 48 123 31z"/>
<path d="M274 2331 c-2 -2 -4 -60 -4 -128 l0 -123 30 0 c33 0 32 -4 32 130 -1
134 1 128 -28 126 -14 0 -28 -3 -30 -5z"/>
<path d="M3453 1852 c-22 -3 -23 -8 -23 -88 0 -89 -2 -92 -57 -85 -9 1 -13
-13 -13 -44 0 -42 2 -46 23 -45 47 4 47 4 47 -85 0 -93 -6 -85 68 -88 26 -1
27 1 28 46 1 26 5 51 9 55 4 4 5 -2 3 -13 -2 -17 3 -21 35 -23 39 -3 40 -2 40
61 0 21 4 27 21 27 19 0 21 5 21 65 0 62 -1 66 -21 61 -18 -5 -20 -1 -20 42
l0 47 -40 0 c-37 0 -39 2 -44 34 -5 36 -18 41 -77 33z m84 -129 c-3 -10 -5 -2
-5 17 0 19 2 27 5 18 2 -10 2 -26 0 -35z m0 -45 c-3 -8 -6 -5 -6 6 -1 11 2 17
5 13 3 -3 4 -12 1 -19z m88 -19 c-3 -12 -7 -24 -10 -27 -3 -3 -3 5 -1 19 6 30
5 29 10 29 3 0 3 -10 1 -21z m-88 -36 c-3 -10 -5 -4 -5 12 0 17 2 24 5 18 2
-7 2 -21 0 -30z m86 -18 c-3 -9 -8 -14 -10 -11 -3 3 -2 9 2 15 9 16 15 13 8
-4z"/>
<path d="M2837 1802 c-36 -39 -6 -94 47 -90 32 3 43 14 50 51 9 48 -63 77 -97
39z"/>
<path d="M2548 1779 c-18 -7 -32 -25 -45 -55 -15 -36 -23 -44 -44 -44 -23 0
-27 -5 -31 -35 -4 -34 -3 -35 29 -35 l33 0 0 -97 0 -98 45 -3 45 -2 0 98 0 98
37 2 c46 4 50 6 47 34 -1 13 -3 26 -3 31 -1 4 -16 7 -35 7 -19 0 -37 4 -40 9
-11 17 21 31 57 26 33 -6 36 -4 42 26 5 20 3 34 -4 38 -18 11 -103 11 -133 0z"/>
<path d="M3106 1734 c-3 -9 -6 -24 -6 -34 0 -14 -9 -20 -32 -22 -29 -3 -33 -7
-36 -35 -3 -29 0 -32 28 -35 31 -3 32 -4 35 -63 6 -110 32 -138 127 -137 65 1
76 8 69 44 -6 31 -9 32 -49 31 -48 -2 -53 3 -56 60 -4 62 0 67 55 67 l49 0 0
35 0 35 -53 0 -53 0 2 35 c3 34 3 35 -35 35 -26 0 -41 -5 -45 -16z"/>
<path d="M893 1672 c-24 -2 -44 -8 -44 -15 -2 -21 3 -42 11 -47 4 -3 334 -5
731 -5 l724 0 2 27 c1 15 -2 30 -8 33 -9 6 -1340 12 -1416 7z"/>
<path d="M2740 1645 c0 -35 0 -35 44 -35 26 0 46 -5 48 -12 2 -7 4 -49 4 -93
-1 -44 4 -83 9 -87 13 -10 75 -10 76 0 1 4 3 64 4 135 l2 127 -94 0 -93 0 0
-35z"/>
<path d="M839 1539 c-9 -18 -6 -26 27 -60 35 -36 37 -40 22 -55 -12 -13 -20
-14 -37 -5 -14 8 -21 8 -21 1 0 -30 84 -20 86 10 0 8 -15 32 -34 52 -30 32
-33 39 -22 53 7 9 21 13 31 10 11 -4 19 -2 19 4 0 21 -59 12 -71 -10z"/>
<path d="M1496 1553 c-3 -4 -6 -40 -6 -81 0 -42 3 -72 8 -68 7 7 9 23 11 96
l1 35 42 -65 c23 -36 43 -67 45 -69 2 -3 7 0 12 5 12 12 20 143 9 150 -4 3 -9
-12 -10 -33 0 -21 -1 -48 -2 -60 -2 -39 -12 -33 -47 27 -33 58 -51 75 -63 63z"/>
<path d="M2045 1550 c-3 -5 -1 -10 4 -10 6 0 11 5 11 10 0 6 -2 10 -4 10 -3 0
-8 -4 -11 -10z"/>
<path d="M1269 1531 c-2 -6 -20 -12 -40 -13 l-36 -1 -2 -61 c-2 -67 12 -70 16
-4 3 42 15 58 44 58 13 0 15 -10 14 -47 -2 -27 2 -51 9 -55 16 -11 36 -10 36
2 0 5 -6 7 -14 4 -17 -6 -23 17 -18 64 3 24 9 32 26 33 20 1 20 2 1 6 -11 3
-23 10 -26 15 -4 7 -8 6 -10 -1z"/>
<path d="M1782 1523 c-9 -9 -9 -13 -2 -13 7 0 10 -13 7 -35 -7 -55 1 -75 32
-74 25 0 25 0 4 9 -19 8 -23 17 -23 54 0 37 3 45 20 48 19 3 18 4 -3 14 -18 8
-26 7 -35 -3z"/>
<path d="M1974 1530 c-5 -5 -7 -35 -4 -67 4 -51 8 -58 28 -61 12 -2 22 1 22 7
0 6 -6 8 -14 5 -18 -7 -26 17 -19 60 4 28 11 36 27 37 20 1 20 2 1 6 -11 3
-23 9 -26 14 -3 5 -9 5 -15 -1z"/>
<path d="M958 1522 c-12 -2 -18 -13 -19 -30 0 -15 -2 -53 -4 -85 -2 -34 0 -55
6 -52 5 4 9 16 9 29 0 19 4 22 28 18 37 -5 62 20 62 62 0 45 -34 69 -82 58z
m59 -24 c25 -42 -9 -104 -45 -82 -18 11 -28 55 -18 80 7 17 52 19 63 2z"/>
<path d="M1353 1519 c-31 -11 -29 -25 8 -59 35 -31 31 -55 -7 -46 -14 4 -24 2
-24 -4 0 -16 56 -12 70 5 10 12 7 20 -19 44 -38 36 -39 49 -3 53 18 2 22 5 12
9 -8 4 -25 3 -37 -2z"/>
<path d="M1890 1520 c-8 -5 -18 -6 -22 -4 -4 3 -8 -12 -9 -33 0 -21 -3 -49 -5
-63 -3 -15 -1 -21 5 -15 5 6 11 28 14 50 3 21 13 45 23 52 20 15 15 26 -6 13z"/>
<path d="M2125 1522 c-65 -14 -57 -122 9 -122 45 0 70 55 46 99 -11 22 -28 29
-55 23z m46 -38 c7 -20 6 -32 -6 -50 -24 -37 -61 -28 -68 16 -9 57 54 85 74
34z"/>
<path d="M1070 1501 c-25 -47 -4 -101 39 -101 52 0 82 68 45 104 -22 23 -71
20 -84 -3z m66 1 c18 -11 21 -57 5 -76 -19 -23 -48 -20 -57 7 -13 38 -13 47 3
62 16 16 32 19 49 7z"/>
<path d="M1657 1513 c-10 -9 -8 -85 1 -101 6 -8 24 -12 50 -10 37 3 42 6 43
28 1 14 2 38 3 53 2 15 -1 30 -6 33 -4 3 -8 -7 -9 -23 -1 -63 -14 -83 -51 -83
-19 0 -22 12 -19 73 2 37 0 43 -12 30z"/>
<path d="M1925 1466 c0 -30 3 -58 8 -62 4 -4 7 20 7 54 0 34 -4 62 -8 62 -4 0
-8 -24 -7 -54z"/>
<path d="M2043 1457 c-2 -43 0 -57 7 -47 11 18 14 110 3 110 -5 0 -9 -28 -10
-63z"/>
<path d="M2212 1456 c-2 -66 9 -68 17 -4 6 44 28 65 56 55 14 -6 16 -17 13
-57 -1 -28 0 -50 5 -50 4 0 7 6 8 13 1 6 2 26 4 42 4 50 -10 66 -59 63 l-42
-3 -2 -59z"/>
</g>
</svg>
